<svg width="223" height="223" viewBox="0 0 223 223" xmlns="http://www.w3.org/2000/svg">
<path d="M111.548 126.08L179.906 194.139C183.892 198.443 190.429 198.534 194.159 194.158C198.535 190.428 198.444 183.891 194.14 179.905L126.081 111.547L194.139 43.178C198.486 39.1644 198.493 32.6327 194.159 28.6113C190.434 24.5529 183.913 24.6313 179.923 28.6082L179.923 28.6087L111.548 97.0099L43.1624 28.6097L43.1624 28.6097C39.1448 24.5922 32.6281 24.5922 28.6102 28.6095C24.5919 32.6271 24.5919 39.1439 28.6103 43.1614L28.8956 42.8761L28.6103 43.1614L97.0109 111.547L28.6103 179.921L28.6098 179.921C24.6322 183.911 24.5526 190.432 28.6118 194.158C32.6335 198.492 39.1653 198.485 43.179 194.138L111.548 126.08Z" stroke="#9dabc0" stroke-width="0.807054"/>
</svg>
