<svg width="50" height="50" viewBox="0 0 50 50" fill="none" xmlns="http://www.w3.org/2000/svg">
<path fill-rule="evenodd" clip-rule="evenodd" d="M20.8617 14C18.1778 14 16 16.1889 16 18.8864C16 20.5762 16.8547 22.0659 18.1519 22.9431C16.8547 23.8204 16 25.3101 16 27C16 28.6898 16.8547 30.1795 18.1519 31.0568C16.8547 31.9341 16 33.4238 16 35.1136C16 37.8111 18.1778 40 20.8617 40C23.5455 40 25.7233 37.8111 25.7233 35.1136V30.6683C26.5796 31.4261 27.7037 31.8863 28.9341 31.8863C31.618 31.8863 33.7958 29.6975 33.7958 27C33.7958 25.3101 32.9411 23.8204 31.6439 22.9431C32.9411 22.0659 33.7958 20.5762 33.7958 18.8864C33.7958 16.1889 31.618 14 28.9341 14H20.8617ZM17.6506 18.8864C17.6506 17.1051 19.0894 15.659 20.8617 15.659H24.0724V22.1136H20.8613L20.851 22.1136C19.0837 22.1078 17.6506 20.664 17.6506 18.8864ZM25.7233 22.1136V15.659H28.9341C30.7063 15.659 32.1451 17.1051 32.1451 18.8864C32.1451 20.6642 30.7117 22.1082 28.9441 22.1136L28.9341 22.1136L28.9175 22.1136H25.7233ZM17.6506 27C17.6506 25.2221 19.0841 23.778 20.8518 23.7726L20.8617 23.7727H24.0725L24.0727 26.9517L24.0724 27L24.0727 27.0483V30.2272H20.8616C19.0894 30.2273 17.6506 28.7812 17.6506 27ZM28.9341 23.7727L28.944 23.7726C30.7114 23.7783 32.1451 25.2223 32.1451 27C32.1451 28.7812 30.7063 30.2273 28.9341 30.2273C27.1753 30.2273 25.7449 28.8031 25.7233 27.0405V26.9594C25.7449 25.2015 27.1679 23.7801 28.9203 23.7727H28.9341ZM17.6506 35.1136C17.6506 33.3324 19.0894 31.8863 20.8617 31.8863H24.0727V35.1136C24.0727 36.8949 22.6339 38.341 20.8617 38.341C19.0894 38.341 17.6506 36.8949 17.6506 35.1136ZM26.405 23.759C26.1501 23.9652 25.9174 24.1979 25.7111 24.4528V23.759H26.405Z" />
</svg>
