<svg width="32" height="32" viewBox="0 0 32 32" fill="none" xmlns="http://www.w3.org/2000/svg">
<path d="M16 4C9.37188 4 4 9.37188 4 16C4 22.6281 9.37188 28 16 28C22.6281 28 28 22.6281 28 16C28 9.37188 22.6281 4 16 4ZM16 25.75C10.6234 25.75 6.25 21.3761 6.25 16C6.25 10.6239 10.6234 6.25 16 6.25C21.3766 6.25 25.75 10.6239 25.75 16C25.75 21.3761 21.3766 25.75 16 25.75ZM17.875 19.75H17.125V15.625C17.125 15.0063 16.6234 14.5 16 14.5H14.5C13.8813 14.5 13.375 15.0063 13.375 15.625C13.375 16.2437 13.8813 16.75 14.5 16.75H14.875V19.75H14.125C13.5063 19.75 13 20.2563 13 20.875C13 21.4937 13.5063 22 14.125 22H17.875C18.4961 22 19 21.4961 19 20.875C19 20.2539 18.4984 19.75 17.875 19.75ZM16 13C16.8283 13 17.5 12.3283 17.5 11.5C17.5 10.6717 16.8283 10 16 10C15.1717 10 14.5 10.6703 14.5 11.5C14.5 12.3297 15.1703 13 16 13Z" />
</svg>
