<svg width="223" height="223" viewBox="0 0 223 223" fill="none" xmlns="http://www.w3.org/2000/svg">
    <path d="M178.869 57.2609V56.803L178.544 57.1254L102.243 132.778L102.237 132.784L102.231 132.791C99.0664 136.588 93.4 136.599 89.8836 132.784L89.8781 132.778L89.8721 132.772C86.4092 129.607 86.3988 123.932 89.8783 120.414C89.8785 120.414 89.8787 120.413 89.879 120.413L165.874 44.4564L166.2 44.1306H165.739H132.875C127.904 44.1306 123.905 40.113 123.905 35.1607C123.905 30.2084 127.904 26.1908 132.875 26.1908H187.839C192.81 26.1908 196.809 30.2084 196.809 35.1607V90.125C196.809 95.0962 192.81 99.0949 187.839 99.0949C182.868 99.0949 178.869 95.0962 178.869 90.125V57.2609ZM26.1908 59.5893C26.1908 47.8888 35.6745 38.4051 47.375 38.4051H90.125C95.0959 38.4051 99.0949 42.4227 99.0949 47.375C99.0949 52.3462 95.0962 56.3449 90.125 56.3449H47.375C45.5822 56.3449 44.1306 57.8047 44.1306 59.5893V175.625C44.1306 177.41 45.5822 178.869 47.375 178.869H163.411C165.196 178.869 166.655 177.41 166.655 175.625V132.875C166.655 127.904 170.654 123.905 175.625 123.905C180.596 123.905 184.595 127.904 184.595 132.875V175.625C184.595 187.314 175.1 196.809 163.411 196.809H47.375C35.6746 196.809 26.1908 187.314 26.1908 175.625V59.5893Z" stroke-width="0.381696"/>
</svg>
