<svg width="33" height="32" viewBox="0 0 33 32" fill="none" xmlns="http://www.w3.org/2000/svg">
<path d="M13.5047 25.2953C13.5047 25.5905 13.5898 25.8784 13.7524 26.1245L14.5558 27.3288C14.8019 27.6979 15.3607 27.9981 15.8046 27.9981H18.6953C19.1378 27.9981 19.6966 27.6981 19.9427 27.3288L20.7433 26.125C20.881 25.917 20.994 25.5452 20.994 25.2953L21 23.4578H13.5L13.5047 25.2953ZM17.25 4C12.4697 4.01501 9 7.88922 9 12.2078C9 14.2881 9.77063 16.1847 11.0419 17.6359C11.8167 18.5191 13.0266 20.3655 13.4897 21.9227C13.4912 21.9344 13.4941 21.9469 13.4955 21.9593H21.0049C21.0064 21.9469 21.0093 21.9351 21.0108 21.9227C21.4737 20.3655 22.6838 18.5191 23.4586 17.6359C24.7313 16.225 25.5 14.3313 25.5 12.2078C25.5 7.69375 21.8062 4.00018 17.25 4ZM21.7687 16.1922C21.0347 17.0289 20.1263 18.3625 19.4695 19.7495H15.0347C14.378 18.3625 13.4695 17.0289 12.7359 16.1927C11.7769 15.1 11.25 13.6609 11.25 12.2078C11.25 9.31094 13.5047 6.26172 17.2078 6.25C20.5594 6.25 23.25 8.94063 23.25 12.2078C23.25 13.6609 22.725 15.1 21.7687 16.1922ZM16.5 7.75C14.4328 7.75 12.75 9.43281 12.75 11.5C12.75 11.9146 13.0854 12.25 13.5 12.25C13.9146 12.25 14.25 11.9125 14.25 11.5C14.25 10.2592 15.2592 9.25 16.5 9.25C16.9146 9.25 17.25 8.91494 17.25 8.50047C17.25 8.086 16.9125 7.75 16.5 7.75Z" fill="#007798"/>
</svg>
