<svg width="223" height="223" viewBox="0 0 223 223" fill="none" xmlns="http://www.w3.org/2000/svg">
<path d="M111.208 174.556L108.472 176.838L111.208 180.118L113.944 176.838L111.208 174.556ZM111.208 174.556C113.944 176.838 113.944 176.837 113.945 176.836L113.947 176.834L113.955 176.825L113.981 176.793L114.079 176.674C114.164 176.571 114.289 176.419 114.45 176.221C114.772 175.826 115.241 175.245 115.835 174.496C117.024 172.998 118.716 170.824 120.744 168.103C124.797 162.665 130.204 155.024 135.618 146.214C146.321 128.797 157.52 106.075 157.52 86.6811C157.52 74.1143 152.664 62.0433 143.99 53.1283L143.99 53.1282C135.312 44.2099 123.522 39.1811 111.208 39.1811C98.8926 39.1811 87.1027 44.2099 78.4255 53.1282L80.6917 55.3332L78.4255 53.1283C69.7514 62.0433 64.8951 74.1143 64.8951 86.6811C64.8951 106.075 76.0943 128.797 86.7974 146.214C92.2109 155.024 97.6186 162.665 101.671 168.103C103.699 170.824 105.391 172.998 106.58 174.496C107.174 175.245 107.643 175.826 107.965 176.221C108.127 176.419 108.251 176.571 108.336 176.674L108.434 176.793L108.461 176.825L108.468 176.834L108.47 176.836C108.471 176.837 108.472 176.838 111.208 174.556ZM168.562 84.425C168.562 102.86 159.342 124.691 147.817 144.643C136.364 164.47 122.961 181.898 115.226 191.391C113.282 193.776 109.843 193.776 107.899 191.391C100.165 181.898 86.7606 164.47 75.3081 144.643C63.7829 124.691 54.5625 102.86 54.5625 84.425C54.5625 69.9167 60.5356 55.9757 71.2117 45.6762C81.8923 35.3726 96.4044 29.5625 111.563 29.5625C126.72 29.5625 141.233 35.3726 151.914 45.6762C162.589 55.9757 168.562 69.9168 168.562 84.425ZM103.059 95.4227C103.058 95.4226 103.058 95.4226 103.058 95.4225C100.52 92.8834 99.0938 89.4402 99.0938 85.85C99.0938 82.2596 100.52 78.8164 103.059 76.2776C105.597 73.7388 109.041 72.3125 112.631 72.3125C116.222 72.3125 119.665 73.7387 122.203 76.2775C124.742 78.8164 126.169 82.2598 126.169 85.85C126.169 89.44 124.743 92.8833 122.204 95.4225C122.204 95.4225 122.204 95.4226 122.204 95.4226C122.204 95.4227 122.203 95.4228 122.203 95.4229L103.059 95.4227Z" fill="#007798" stroke="#007798" stroke-width="7.125"/>
</svg>
