<svg width="32" height="32" viewBox="0 0 32 32" fill="none" xmlns="http://www.w3.org/2000/svg">
<path d="M9.95006 21.9258L24.2062 7.66734C25.378 6.49556 27.2812 6.49556 28.453 7.66734L30.2999 9.51562C30.4452 9.66188 30.5718 9.81984 30.6843 9.98625C31.453 11.1506 31.3265 12.7336 30.2999 13.7602L16.0405 28.0148C15.9796 28.0758 15.9187 28.0945 15.853 28.193C15.403 28.5914 14.8687 28.8445 14.2874 29.0555L8.64693 30.7148C8.25225 30.832 7.82521 30.7242 7.53412 30.3914C7.24302 30.143 7.13418 29.7164 7.25034 29.318L8.90943 23.6789C9.10443 23.018 9.46209 22.4133 9.95006 21.9258ZM11.068 24.3117L9.99084 27.9773L13.6546 26.8992C13.9124 26.8102 14.2265 26.6461 14.4515 26.4258L25.1577 15.7148L22.2093 12.7664L11.541 23.5148C11.5133 23.543 11.4866 23.5711 11.4608 23.6039C11.2799 23.8055 11.1454 24.0492 11.068 24.3117Z" fill="#2B849D"/>
<path d="M8.61719 4.4375C8.54688 4.39062 8.5 4.34375 8.5 4.25C8.5 4.17969 8.54688 4.13281 8.61719 4.08594L10.0234 3.5L10.5859 2.11719C10.6328 2.04688 10.6797 2 10.75 2C10.8438 2 10.8906 2.04688 10.9375 2.11719L11.5234 3.5L12.9062 4.08594C12.9766 4.13281 13.0234 4.17969 13.0234 4.25C13.0234 4.34375 12.9766 4.39062 12.9062 4.4375L11.5234 5L10.9375 6.40625C10.8906 6.47656 10.8438 6.52344 10.7734 6.52344C10.6797 6.52344 10.6328 6.47656 10.5859 6.40625L10.0234 5L8.61719 4.4375ZM12.9062 11.5859C12.9766 11.6328 13.0234 11.6797 13.0234 11.75C13.0234 11.8438 12.9766 11.8906 12.9062 11.9375L11.5234 12.5L10.9375 13.9062C10.8906 13.9766 10.8438 14.0234 10.7734 14.0234C10.6797 14.0234 10.6328 13.9766 10.5859 13.9062L10.0234 12.5L8.61719 11.9375C8.54688 11.8906 8.5 11.8438 8.5 11.7734C8.5 11.6797 8.54688 11.6328 8.61719 11.5859L10.0234 11L10.5859 9.61719C10.6328 9.54688 10.6797 9.5 10.75 9.5C10.8438 9.5 10.8906 9.54688 10.9375 9.61719L11.5234 11L12.9062 11.5859ZM10.0234 8C10.0234 8.14062 9.92969 8.28125 9.8125 8.32812L7.16406 9.66406L5.85156 12.3125C5.78125 12.4297 5.66406 12.5 5.52344 12.5C5.35938 12.5 5.24219 12.4297 5.17188 12.3125L3.85938 9.66406L1.21094 8.32812C1.09375 8.28125 1 8.14062 1 8C1 7.85938 1.09375 7.71875 1.21094 7.67188L3.85938 6.33594L5.17188 3.71094C5.3125 3.45312 5.71094 3.45312 5.85156 3.71094L7.16406 6.33594L9.8125 7.67188C9.92969 7.71875 10 7.85938 10.0234 8Z" fill="#2B849D"/>
</svg>
