<svg width="223" height="223" viewBox="0 0 223 223" fill="none" xmlns="http://www.w3.org/2000/svg">
<path d="M89.5732 42.0312V41.8643H89.4062H73.375C70.3364 41.8643 67.8643 44.3364 67.8643 47.375V175.625C67.8643 178.656 70.3369 181.136 73.375 181.136H148.188C151.226 181.136 153.698 178.664 153.698 175.625V47.375C153.698 44.3369 151.219 41.8643 148.188 41.8643H132.156H131.989V42.0312V52.7188C131.989 55.5787 129.66 57.8955 126.812 57.8955H94.75C91.9029 57.8955 89.5732 55.5787 89.5732 52.7188V42.0312ZM94.75 159.761H126.812C129.66 159.761 131.989 162.079 131.989 164.938C131.989 167.796 129.672 170.114 126.812 170.114H94.75C91.8914 170.114 89.5732 167.785 89.5732 164.938C89.5732 162.091 91.9032 159.761 94.75 159.761ZM73.375 26.167H148.188C159.885 26.167 169.396 35.661 169.396 47.375V175.625C169.396 187.339 159.902 196.833 148.188 196.833H73.375C61.6609 196.833 52.167 187.339 52.167 175.625V47.375C52.167 35.6609 61.6609 26.167 73.375 26.167Z" fill="#007798" stroke="#007798" stroke-width="0.333984"/>
</svg>
