<svg width="33" height="32" viewBox="0 0 33 32" fill="none" xmlns="http://www.w3.org/2000/svg">
<path d="M15.8375 4.23869C16.2031 4.08119 16.6016 4 17 4C17.3984 4 17.7547 4.08119 18.1625 4.23869L27.9734 8.44328C28.5969 8.71094 29 9.32031 29 10C29 10.6797 28.5969 11.2891 27.9734 11.5562L18.1625 15.7609C17.7547 15.9203 17.3984 16 17 16C16.6016 16 16.2031 15.9203 15.8375 15.7609L6.02656 11.5562C5.40378 11.2891 5 10.6797 5 10C5 9.32031 5.40378 8.71094 6.02656 8.44328L15.8375 4.23869ZM17 6.25C16.8641 6.25 16.7703 6.26922 16.7234 6.30672L8.10594 10L16.7234 13.6938C16.7703 13.7313 16.8641 13.75 17 13.75C17.0938 13.75 17.1875 13.7313 17.2766 13.6938L25.8922 10L17.2766 6.30672C17.1875 6.26922 17.0938 6.25 17 6.25ZM16.7234 19.6937C16.7703 19.7312 16.8641 19.75 17 19.75C17.0938 19.75 17.1875 19.7312 17.2766 19.6937L26.1875 15.8734C25.9719 15.55 25.9297 15.1188 26.1172 14.7484C26.3984 14.1906 27.0734 13.9656 27.6266 14.2422L28.0531 14.4578C28.6344 14.7484 29 15.3391 29 15.9859C29 16.675 28.5922 17.2937 27.9641 17.5609L18.1625 21.7609C17.7547 21.9203 17.3984 22 17 22C16.6016 22 16.2031 21.9203 15.8375 21.7609L6.06922 17.575C5.42052 17.2984 5.00003 16.6609 5.00003 15.9531C5.00003 15.3859 5.27511 14.8516 5.73875 14.5187L6.22109 14.1719C6.72687 13.8109 7.42953 13.9281 7.79047 14.4344C8.10078 14.8703 8.05812 15.4516 7.67656 15.8359L16.7234 19.6937ZM7.79047 20.4344C8.10078 20.8703 8.05812 21.4516 7.67656 21.8359L16.7234 25.6937C16.7703 25.7312 16.8641 25.75 17 25.75C17.0938 25.75 17.1875 25.7312 17.2766 25.6937L26.1875 21.8734C25.9719 21.55 25.9297 21.1187 26.1172 20.7484C26.3984 20.1906 27.0734 19.9656 27.6266 20.2422L28.0531 20.4578C28.6344 20.7484 29 21.3391 29 21.9859C29 22.675 28.5922 23.2937 27.9641 23.5609L18.1625 27.7609C17.7547 27.9203 17.3984 28 17 28C16.6016 28 16.2031 27.9203 15.8375 27.7609L6.06922 23.575C5.42052 23.2984 5.00005 22.6609 5.00005 21.9531C5.00005 21.3859 5.27516 20.8516 5.73875 20.5187L6.22109 20.1719C6.72687 19.8109 7.42953 19.9281 7.79047 20.4344Z" fill="#2B849D"/>
</svg>
