<svg width="223" height="223" viewBox="0 0 223 223" fill="none" xmlns="http://www.w3.org/2000/svg">
<path d="M139.285 187.9C135.48 167.54 124.54 149.203 108.431 136.183C92.3205 123.164 72.0965 116.314 51.3907 116.867C45.5574 116.864 39.7361 117.396 34 118.457M187.9 139.456C178.239 136.242 168.122 134.613 157.941 134.633C143.778 134.592 129.79 137.773 117.038 143.936M34 34H187.9V187.9H34V34ZM110.95 85.2999C110.95 89.8351 112.752 94.1846 115.958 97.3918C119.165 100.598 123.515 102.4 128.05 102.4C132.585 102.4 136.935 100.598 140.142 97.3918C143.348 94.1846 145.15 89.8351 145.15 85.2999C145.15 80.7647 143.348 76.4153 140.142 73.2084C136.935 70.0016 132.585 68.1999 128.05 68.1999C123.515 68.1999 119.165 70.0016 115.958 73.2084C112.752 76.4153 110.95 80.7647 110.95 85.2999Z" stroke="#2B849D" stroke-width="17.1" stroke-linecap="round" stroke-linejoin="round"/>
</svg>
