<svg width="33" height="32" viewBox="0 0 33 32" fill="none" xmlns="http://www.w3.org/2000/svg">
<path d="M26 4H8C6.34766 4 5 5.34766 5 6.95781V20.4156C5 22.068 6.34766 23.3734 8 23.3734H12.5V27.31C12.5 27.7711 13.0166 28.0389 13.3962 27.7647L19.2509 23.3734H26.0009C27.6533 23.3734 29.0009 22.0258 29.0009 20.4156V6.95762C29 5.34746 27.6922 4 26 4ZM26.7922 20.4998C26.7922 20.91 26.4523 21.2498 26.0422 21.2498H18.5422L14.7922 24.0623V21.2498H8.04219C7.63203 21.2498 7.29219 20.91 7.29219 20.4998V6.99981C7.29219 6.58965 7.63203 6.24981 8.04219 6.24981H26.0422C26.4523 6.24981 26.7922 6.58965 26.7922 6.99981V20.4998ZM20.375 9.24981C18.9252 9.24981 17.75 10.425 17.75 11.8326C17.75 13.2403 18.9252 14.4154 20.375 14.4154C20.5034 14.4154 20.627 14.3955 20.7505 14.3776V14.8748C20.7922 15.4936 20.2859 15.9998 19.6672 15.9998C19.0484 15.9998 18.5422 16.5061 18.5422 17.1248C18.5422 17.7436 19.0461 18.2076 19.625 18.2076C21.4859 18.2076 23 16.6936 23 14.8748L22.9996 11.917C23 10.4264 21.8656 9.24981 20.375 9.24981ZM13.625 9.24981C12.1752 9.24981 11 10.425 11 11.8326C11 13.2403 12.1752 14.4154 13.625 14.4154C13.7534 14.4154 13.877 14.3955 14.0005 14.3776V14.8748C14.0422 15.4936 13.5359 15.9998 12.9172 15.9998C12.2984 15.9998 11.7922 16.5061 11.7922 17.1248C11.7922 17.7436 12.2961 18.2076 12.875 18.2076C14.7359 18.2076 16.2078 16.6936 16.2078 14.8748L16.25 11.8748C16.25 10.4264 15.1156 9.24981 13.625 9.24981Z" fill="#2B849D"/>
</svg>
